<svg width="87" height="85" viewBox="0 0 87 85" fill="none" xmlns="http://www.w3.org/2000/svg">
<path d="M44.2542 59.1658C44.2327 59.0591 44.1036 58.5684 43.7164 58.419C43.3937 58.291 43.2001 58.5257 42.6838 58.547C42.232 58.5684 41.6942 58.419 41.393 58.1203C41.1133 57.8429 41.1133 57.5015 41.1349 56.3707C41.1349 53.4688 41.0703 53.8956 41.1349 52.9141C41.1779 52.0819 41.2209 51.9966 41.1564 51.7192C40.9412 50.823 40.1883 50.2683 39.5429 49.7988C38.5103 49.0307 37.5207 48.7747 37.3056 48.732C36.5741 48.54 35.1973 48.2199 34.0786 48.86C33.5408 49.1801 32.8954 49.6068 33.046 50.4176C33.2396 51.5058 34.4659 51.3138 34.5734 51.2711C35.0467 51.0791 36.0793 50.695 36.8538 50.7803C37.198 50.823 37.9294 51.1644 38.08 51.3138C38.5963 51.8259 38.919 52.7007 38.5963 53.0421C38.4242 53.2341 38.1015 53.2341 38.0585 53.2128C37.6498 53.0848 37.5637 53.0207 37.3916 52.9141C36.6602 52.4446 35.563 52.6793 35.3909 52.7434C34.4228 52.9994 33.928 53.6822 33.6914 53.9809C33.046 54.8557 32.9815 55.7519 32.96 56.1573C32.9385 56.5627 32.8524 57.9283 33.8635 59.1231C34.638 60.0406 35.9287 60.7021 37.0689 60.5314C37.5852 60.4674 38.1661 60.382 38.7039 59.9553C38.9621 59.7419 39.1557 59.5072 39.4999 59.5072C39.7795 59.4859 39.9947 59.6566 40.2743 59.8486C41.1349 60.4674 41.5866 60.7661 41.7587 60.8514C42.275 61.0648 43.114 61.1502 43.6949 60.6594C44.0821 60.3394 44.3833 59.7419 44.2542 59.1658ZM37.4992 57.8856C36.7677 58.2483 35.7782 58.0563 35.3264 57.4375C34.9176 56.8614 35.1113 56.1786 35.1543 55.9653C35.1973 55.8159 35.4124 54.9838 36.2299 54.6424C36.3805 54.5784 36.9829 54.3436 37.6067 54.6637C38.1876 54.9838 38.3382 55.5812 38.3597 55.6665C38.6609 56.5627 38.2736 57.5015 37.4992 57.8856Z" fill="#F3F243"/>
<path d="M63.6589 39.1513C63.6374 38.9806 63.4438 38.1058 62.7769 37.8071C62.2175 37.551 61.8733 37.9351 60.9698 37.9351C60.1738 37.9351 59.2487 37.6364 58.7539 37.0816C58.2807 36.5695 58.3452 35.9934 58.4313 34.0304C58.6894 28.9949 58.5388 29.7416 58.7109 28.0347C58.8615 26.5838 58.926 26.4557 58.84 25.965C58.5173 24.3647 57.2911 23.3832 56.2154 22.5084C54.4729 21.1001 52.7734 20.588 52.4077 20.46C51.1599 20.076 48.7935 19.3932 46.7928 20.4387C45.8247 20.9294 44.6845 21.6336 44.8566 23.0418C45.0933 24.9408 47.2231 24.7061 47.4382 24.6421C48.2772 24.3434 50.1058 23.7673 51.4181 23.9806C51.9989 24.0873 53.2682 24.7488 53.5048 25.0262C54.3438 25.9437 54.8386 27.5013 54.2578 28.0774C53.9566 28.3761 53.3973 28.3547 53.3112 28.3334C52.6013 28.0987 52.4507 27.9707 52.171 27.7573C50.9233 26.8825 49.0301 27.2239 48.7074 27.2879C47.0079 27.6506 46.0829 28.8028 45.6741 29.2936C44.4694 30.7445 44.2973 32.3021 44.2113 33.0062C44.1467 33.7103 43.8886 36.0788 45.502 38.2338C46.7713 39.8981 48.9441 41.1356 50.9448 40.9436C51.8483 40.8583 52.8594 40.7516 53.8275 40.0901C54.3008 39.7701 54.6665 39.3647 55.2474 39.3647C55.7422 39.3647 56.0864 39.6421 56.5811 40.0261C58.044 41.157 58.7539 41.7331 59.0766 41.8824C59.9372 42.2878 61.4 42.5012 62.4757 41.7331C63.2501 41.1783 63.831 40.1541 63.6589 39.1513ZM52.085 36.5055C50.7727 37.0816 49.0732 36.6549 48.3417 35.5453C47.6748 34.5212 48.0621 33.3476 48.1911 32.9635C48.2772 32.7075 48.729 31.2779 50.1703 30.7658C50.4285 30.6805 51.5041 30.2964 52.5367 30.9152C53.5263 31.5126 53.7415 32.5581 53.763 32.7288C54.1932 34.2864 53.4403 35.8867 52.085 36.5055Z" fill="#F3F243"/>
<path d="M38.4027 39.1513C38.3812 38.9806 38.1876 38.1058 37.5207 37.8071C36.9613 37.551 36.6171 37.9351 35.7136 37.9351C34.9176 37.9351 33.9926 37.6364 33.4978 37.0816C33.0245 36.5695 33.089 35.9934 33.1751 34.0304C33.4332 28.9949 33.2827 29.7416 33.4548 28.0347C33.6053 26.5838 33.6699 26.4557 33.5838 25.965C33.2611 24.3647 32.0349 23.3832 30.9593 22.5084C29.2167 21.1001 27.5172 20.588 27.1515 20.46C25.9037 20.076 23.5373 19.3932 21.5366 20.4387C20.5686 20.9294 19.4284 21.6336 19.6005 23.0418C19.8371 24.9408 21.9669 24.7061 22.182 24.6421C23.021 24.3434 24.8496 23.7673 26.1619 23.9806C26.7427 24.0873 28.012 24.7488 28.2486 25.0262C29.0876 25.9437 29.5824 27.5013 29.0016 28.0774C28.7004 28.3761 28.1411 28.3547 28.055 28.3334C27.3451 28.0987 27.1945 27.9707 26.9149 27.7573C25.6671 26.8825 23.774 27.2239 23.4513 27.2879C21.7518 27.6506 20.8267 28.8028 20.418 29.2936C19.2133 30.7445 19.0412 32.3021 18.9551 33.0062C18.8906 33.7103 18.6324 36.0788 20.2459 38.2338C21.5151 39.8981 23.6879 41.1356 25.6886 40.9436C26.5922 40.8583 27.6033 40.7516 28.5713 40.0901C29.0446 39.7701 29.4103 39.3647 29.9912 39.3647C30.486 39.3647 30.8302 39.6421 31.325 40.0261C32.7879 41.157 33.4978 41.7331 33.8205 41.8824C34.681 42.2878 36.1439 42.5012 37.2195 41.7331C37.994 41.1783 38.5748 40.1541 38.4027 39.1513ZM26.8288 36.5055C25.5165 37.0816 23.817 36.6549 23.0856 35.5453C22.4187 34.5212 22.8059 33.3476 22.935 32.9635C23.021 32.7075 23.4728 31.2779 24.9142 30.7658C25.1723 30.6805 26.248 30.2964 27.2806 30.9152C28.2702 31.5126 28.4853 32.5581 28.5068 32.7288C28.9371 34.2864 28.1841 35.8867 26.8288 36.5055Z" fill="#F3F243"/>
<path d="M64.0892 60.1476C64.0677 60.0409 63.9601 59.5502 63.5729 59.3795C63.2502 59.2301 63.0566 59.4435 62.5402 59.4435C62.0885 59.4435 61.5507 59.2728 61.271 58.9527C61.0128 58.654 61.0343 58.334 61.0989 57.2031C61.2495 54.3013 61.1634 54.728 61.271 53.7465C61.357 52.9143 61.228 49.7778 61.0343 48.4762C60.9053 47.6228 60.5826 45.1477 59.7866 45.2117C57.5493 45.4037 58.2807 48.8176 58.3668 50.0979C58.4313 51.0154 59.0337 53.4264 58.711 53.7678C58.5389 53.9385 58.2162 53.9172 58.1731 53.9172C57.8504 53.8959 57.6353 53.6825 57.5062 53.5971C56.8178 53.0637 55.6992 53.2771 55.5271 53.3198C54.559 53.5331 54.0212 54.1946 53.7845 54.472C53.0961 55.3041 52.9885 56.2003 52.9455 56.6057C52.9025 57.0111 52.7519 58.3766 53.6985 59.6142C54.4299 60.5744 55.6777 61.2785 56.8393 61.1718C57.3557 61.1291 57.9365 61.0651 58.4958 60.681C58.7755 60.489 58.9691 60.2543 59.3133 60.2543C59.593 60.2543 59.8081 60.425 60.0878 60.6384C60.9268 61.2998 61.3355 61.6199 61.5291 61.7052C62.0239 61.9399 62.8629 62.068 63.4868 61.6199C63.8525 61.3212 64.1967 60.7451 64.0892 60.1476ZM57.4202 58.782C56.6672 59.1234 55.6776 58.8674 55.2689 58.2273C54.8817 57.6512 55.1183 56.9471 55.1829 56.7337C55.2259 56.5843 55.5055 55.7735 56.323 55.4748C56.4736 55.4321 57.0975 55.1974 57.6783 55.5601C58.2592 55.9015 58.3668 56.5203 58.3883 56.6057C58.7755 58.0139 58.0656 58.4833 57.4202 58.782Z" fill="#F3F243"/>
<path d="M16.3521 3.68942C14.7817 2.38786 12.2862 1.76908 7.27367 0.574204C4.15431 -0.172594 2.94959 -0.172594 1.96 0.467519C0.389559 1.47036 0.0238404 4.09482 0.00232751 5.43906C-0.062211 8.7463 1.22856 35.2043 2.23966 38.4475C2.99261 40.8799 4.39095 41.328 5.89685 40.7946C6.75736 40.4959 7.12308 39.493 7.35972 38.8102C8.45688 35.5883 6.54223 33.6467 7.38123 29.6566C7.57485 28.6751 7.85452 28.0777 8.26326 27.5656C9.40344 26.136 11.232 25.9013 11.9204 25.7733C15.5561 25.0265 18.9767 20.4177 20.0093 16.4277C21.1279 12.0749 19.9017 6.67661 16.3521 3.68942ZM10.6942 19.1588C9.81219 20.0123 8.04813 21.1858 7.14459 20.6097C6.49921 20.2043 5.78928 10.1546 6.6498 9.62112C7.94057 8.83165 12.2001 11.1787 12.5443 14.6353C12.8025 17.0251 11.0599 18.7961 10.6942 19.1588Z" fill="#F3F243"/>
<path d="M33.6484 13.3125C32.6804 12.8858 31.4972 13.2058 30.7442 13.7392C30.5506 13.8673 29.3889 14.6994 29.5395 15.7876C29.6686 16.7051 30.7012 17.3025 31.4541 17.4732C32.6373 17.7506 33.2397 17.0465 34.0142 17.4092C34.8101 17.7933 35.0038 18.9668 35.0898 19.5856C35.5846 23.2129 35.6061 28.9312 35.9503 32.6866C36.0579 33.8814 37.0475 34.927 37.6929 35.0976C38.4673 35.311 40.7907 34.9696 41.1134 33.412C41.5437 31.3637 40.4035 29.9127 39.4139 22.6581C39.0912 20.3537 38.704 19.2442 39.586 18.348C40.2744 17.6653 41.307 17.0038 42.2966 17.2599C44.0607 17.7079 44.3188 19.5643 45.502 19.5216C46.384 19.4789 47.2876 18.3907 47.3521 17.4092C47.4812 15.7236 45.2224 14.3367 43.6519 13.8886C41.9954 13.4192 40.3389 13.3978 38.6609 14.294C37.5423 14.8914 37.4992 15.5529 36.7678 15.3822C35.6707 15.1261 34.9392 13.8673 33.6484 13.3125Z" fill="#F3F243"/>
<path d="M18.6755 42.6511C16.6963 41.2856 13.3188 40.3254 11.1675 41.5629C7.23064 43.8247 8.06964 52.9143 11.5332 58.6326C12.071 59.5074 15.1689 64.6497 18.2237 63.9882C20.5686 63.4761 21.5582 59.8488 21.6012 59.6354C21.6442 59.4434 22.3757 56.5629 21.2355 55.9228C20.4825 55.4961 19.4499 55.7521 19.1057 57.1177C18.74 58.6326 17.5998 59.5074 16.9975 59.5928C16.0079 59.7421 14.6526 56.2429 14.459 55.7308C13.5554 53.4477 12.1571 46.0651 13.3188 45.6383C14.2438 45.2969 17.019 46.5772 17.7504 47.9214C18.0946 48.5402 18.1376 49.0736 18.7615 49.6497C18.8691 49.7564 19.7941 50.6099 20.5041 50.3752C21.4937 50.0551 21.8379 47.6654 21.2355 45.8304C20.6762 44.0594 19.2778 43.0779 18.6755 42.6511Z" fill="#F3F243"/>
<path d="M23.0856 51.6762C22.978 52.0602 23.0641 55.6875 23.2792 57.0531C23.5374 58.568 23.4944 60.147 24.3979 61.1285C24.9142 61.6832 25.7962 62.11 26.5062 62.0033C28.679 61.7259 28.3132 60.2963 29.3459 60.5097C29.4964 60.531 29.7331 60.5951 29.9912 60.9364C30.6366 61.7259 31.4111 62.3874 31.8629 62.3447C32.2931 62.302 33.0676 61.5979 32.9815 60.8724C32.874 59.9549 30.4645 60.3177 30.7442 56.8397C30.9378 54.45 30.6581 53.5752 31.3035 52.423C32.2071 50.78 29.6685 50.1399 28.8295 51.0574C28.3993 51.5268 28.5499 54.6207 28.3993 55.7729C28.2487 56.8397 28.2272 58.7601 27.4957 58.9094C26.205 59.1655 25.8608 58.0773 25.6241 56.8184C25.366 55.3675 25.6456 53.9806 25.9683 52.615C26.1404 51.8682 25.8177 51.1427 25.2584 50.8013C24.4624 50.3106 23.3223 50.7587 23.0856 51.6762Z" fill="#F3F243"/>
<path d="M51.7193 56.2C51.8054 55.7946 51.5902 52.21 51.3106 50.8231C51.0094 49.3081 50.9664 47.7505 50.0198 46.7904C49.482 46.2569 48.5999 45.8729 47.8685 46.0009C45.7172 46.3636 46.1475 47.7719 45.0934 47.6012C44.9428 47.5798 44.7061 47.5158 44.4265 47.2171C43.738 46.449 42.9421 45.8302 42.5118 45.8942C42.0816 45.9582 41.3501 46.6837 41.4577 47.4091C41.6083 48.3266 43.9962 47.8786 43.8456 51.3565C43.738 53.7462 44.0607 54.5997 43.4584 55.7946C42.6194 57.4802 45.1794 58.0137 45.9754 57.0535C46.3841 56.5627 46.1045 53.4902 46.212 52.3167C46.3196 51.2285 46.2551 49.3295 46.9865 49.1588C48.2773 48.8601 48.6645 49.9269 48.9442 51.1645C49.2668 52.594 49.0302 54.0023 48.7721 55.3892C48.643 56.136 48.9872 56.8615 49.5465 57.1815C50.407 57.6083 51.5257 57.1175 51.7193 56.2Z" fill="#F3F243"/>
<path d="M69.8115 51.5907C68.7358 49.8197 66.1973 48.6888 64.2827 49.6917C62.1744 50.8012 62.2389 53.7884 62.8413 55.4314C63.0134 55.9008 63.5512 57.4157 65.1432 58.0345C65.2292 58.0558 66.7782 58.6533 68.241 57.9065C70.1987 56.8823 71.1453 53.7884 69.8115 51.5907ZM67.359 55.3247C66.6706 55.7727 65.6595 55.6661 65.1432 55.09C64.6699 54.5565 64.799 53.8524 64.842 53.639C64.8635 53.4897 65.0141 52.6362 65.7886 52.2308C65.9176 52.1668 66.4985 51.8467 67.1439 52.1028C67.7677 52.3588 67.9614 52.9349 68.0044 53.0416C68.3701 53.8951 68.0689 54.8766 67.359 55.3247Z" fill="#F3F243"/>
<path d="M68.0043 26.9464C69.3597 23.7245 69.0585 22.5723 70.0696 21.1427C70.2417 20.8867 71.2528 19.5211 72.9953 19.0944C74.8669 18.6463 76.4589 19.5425 77.4915 20.1186C78.5672 20.7373 81.0196 22.1029 81.1272 24.2153C81.2132 25.8369 79.8579 27.0531 78.352 28.4187C77.3194 29.3575 75.2327 30.9365 72.6081 32.3447C71.9412 32.7074 71.5755 32.8568 71.2528 33.3049C70.3923 34.4784 71.1237 35.7586 71.683 38.6818C72.4575 42.6932 71.9842 44.9336 73.5332 45.7871C73.8343 45.9578 74.114 46.0218 74.2861 46.0644C75.7275 46.3845 81.8801 44.8269 82.0953 44.1868C82.2243 43.8241 81.8586 43.4827 81.3423 42.8425C80.4818 41.7757 79.9009 40.6662 78.7393 38.4258C77.7497 36.5054 77.2549 35.5239 77.556 34.6064C77.8572 33.7103 78.6317 33.3475 79.6213 32.7288C81.9016 31.2992 84.3111 29.1441 85.3652 27.2451C86.8066 24.642 86.1612 21.7615 86.0751 21.3774C84.7413 15.8085 77.7712 13.9948 76.7386 13.7388C75.0606 13.312 72.1778 12.5652 69.037 13.9095C63.8093 16.1499 62.8843 22.0816 62.7337 22.9991C62.5186 24.3646 62.1529 26.669 63.5512 27.8426C64.4547 28.6107 66.1327 28.9094 67.1223 28.2266C67.5956 27.8639 67.8107 27.4372 68.0043 26.9464Z" fill="#F3F243"/>
<path d="M78.6532 48.796C80.2667 48.2412 81.665 49.2227 82.0522 49.5001C82.5255 49.8201 83.386 50.4176 83.5366 51.4631C83.7518 52.8713 82.504 53.8955 82.3749 54.0022C81.1917 54.941 79.5137 54.877 78.3305 54.2582C78.0939 54.1302 76.5234 53.3194 76.4374 51.7191C76.3944 50.3536 77.4915 49.2014 78.6532 48.796Z" fill="#F3F243"/>
<path d="M34.9392 46.6413C34.9392 46.0439 36.6387 44.8703 37.865 44.2942C38.79 43.8675 39.6075 43.4834 40.0378 44.0382C40.3389 44.4222 40.4465 45.2331 40.1668 45.6385C39.6505 46.4493 38.6394 45.6385 37.2841 46.8547C36.9399 47.1534 35.9718 47.5588 35.4985 47.4521C35.0898 47.3454 34.9392 46.9614 34.9392 46.6413Z" fill="#F3F243"/>
<path d="M4.08103 67.1906L3.01462 71.8502L7.02087 69.1917L7.79907 69.7062L4.68629 74.1943L4.08103 73.7941L5.29155 72.0503L6.64619 70.1922L2.63993 72.7936L2.2076 72.5077L3.24519 67.8767L2.00585 69.792L0.795325 71.5358L0.190063 71.1355L3.30284 66.6475L4.08103 67.1906Z" fill="#F3F243"/>
<path d="M8.31786 76.1669C8.31786 76.0812 8.34668 75.9382 8.43315 75.7381C8.00082 75.8811 7.56849 75.8525 7.16498 75.6524C6.81911 75.4523 6.55972 75.2236 6.44443 74.8805C6.32914 74.5661 6.35796 74.2516 6.50207 73.9372C6.70383 73.5656 6.99205 73.3655 7.39555 73.3083C7.79906 73.2511 8.26021 73.3655 8.75019 73.6227L9.35545 73.9372L9.49956 73.6513C9.61485 73.4512 9.64367 73.2225 9.58602 73.051C9.52838 72.8509 9.35545 72.6794 9.12487 72.565C8.8943 72.4507 8.69254 72.3935 8.49079 72.4507C8.28903 72.4793 8.14493 72.565 8.05846 72.7366L7.4532 72.4221C7.53966 72.2506 7.7126 72.1077 7.91435 71.9933C8.1161 71.879 8.3755 71.8504 8.6349 71.879C8.8943 71.9075 9.18252 71.9647 9.44191 72.1077C9.84542 72.3364 10.1336 72.5936 10.2489 72.9367C10.3642 73.2797 10.3354 73.6227 10.1625 73.9658L9.26898 75.5952C9.09605 75.9097 9.00958 76.1955 8.98076 76.4528L8.95194 76.51L8.31786 76.1669ZM7.56849 75.1378C7.77024 75.2522 7.97199 75.2808 8.20257 75.2808C8.43314 75.2808 8.6349 75.2236 8.77901 75.0807L9.18252 74.3374L8.69254 74.0801C7.94317 73.6799 7.4532 73.7085 7.22262 74.1373C7.10733 74.3374 7.10733 74.5089 7.16498 74.6804C7.22262 74.9091 7.36673 75.0521 7.56849 75.1378Z" fill="#F3F243"/>
<path d="M13.3039 74.68C13.2175 74.6229 13.1022 74.5657 13.0157 74.5085C12.6122 74.3084 12.2375 74.3656 11.9205 74.6515L10.71 77.2528L10.0759 76.967L11.7475 73.2793L12.3528 73.5652L12.1799 73.994C12.5257 73.7653 12.9004 73.7367 13.3039 73.9082C13.4192 73.9654 13.5057 74.0226 13.5633 74.0797L13.3039 74.68Z" fill="#F3F243"/>
<path d="M14.3128 78.2537C14.5434 78.3394 14.774 78.3394 15.0045 78.2822C15.2351 78.1965 15.408 78.0821 15.4945 77.882L16.0998 78.1107C16.0133 78.3108 15.8404 78.5109 15.6386 78.6539C15.4369 78.7968 15.1775 78.8826 14.8892 78.9111C14.601 78.9397 14.3416 78.9112 14.0822 78.7968C13.5634 78.5967 13.2176 78.2537 13.0446 77.7963C12.8717 77.3389 12.9005 76.7958 13.1311 76.224L13.1599 76.1097C13.304 75.7381 13.5058 75.4522 13.7364 75.2235C13.9958 74.9948 14.2552 74.8519 14.5722 74.7947C14.8892 74.7375 15.2063 74.7661 15.5522 74.909C15.9845 75.0806 16.2727 75.3378 16.4745 75.7095C16.6474 76.0811 16.6762 76.4527 16.5321 76.8815L15.9268 76.6528C16.0133 76.3955 15.9845 76.1668 15.898 75.9382C15.7827 75.7095 15.6098 75.5665 15.3792 75.4522C15.0622 75.3378 14.7451 75.3378 14.4857 75.5094C14.1975 75.6809 13.9958 75.9667 13.8228 76.4241L13.7652 76.5385C13.5923 76.9673 13.5634 77.3389 13.6499 77.6533C13.7652 77.9106 13.9669 78.1393 14.3128 78.2537Z" fill="#F3F243"/>
<path d="M19.0396 80.3974C19.0396 80.3116 19.0396 80.1687 19.0684 79.9686C18.6649 80.1973 18.2325 80.2259 17.8002 80.0829C17.4255 79.9686 17.1373 79.7685 16.9644 79.454C16.7915 79.1681 16.7626 78.8537 16.8491 78.5107C16.9644 78.1105 17.2238 77.8532 17.5985 77.7102C17.9732 77.5959 18.4343 77.6245 19.0107 77.796L19.6448 77.9961L19.7313 77.6817C19.8178 77.453 19.7889 77.2529 19.7025 77.0528C19.616 76.8812 19.4143 76.7383 19.1549 76.6525C18.9243 76.5668 18.6937 76.5668 18.4919 76.6525C18.2902 76.7097 18.1749 76.8526 18.1173 76.9956L17.4544 76.7955C17.512 76.5954 17.6561 76.4524 17.829 76.3095C18.0308 76.1666 18.2614 76.0808 18.5208 76.0522C18.7802 76.0236 19.0684 76.0522 19.3566 76.138C19.8178 76.2809 20.106 76.5096 20.3077 76.7955C20.4807 77.1099 20.5095 77.453 20.3942 77.8246L19.8178 79.5969C19.7025 79.94 19.6448 80.2544 19.6736 80.4831L19.6448 80.5403L19.0396 80.3974ZM18.0884 79.5398C18.2902 79.597 18.5208 79.6255 18.7225 79.5684C18.9531 79.5112 19.126 79.4254 19.2701 79.2825L19.5295 78.4821L19.0107 78.3106C18.2037 78.0533 17.7138 78.1676 17.5696 78.625C17.512 78.8251 17.512 79.0252 17.6273 79.1681C17.7138 79.3683 17.8867 79.4826 18.0884 79.5398Z" fill="#F3F243"/>
<path d="M23.4494 80.4832C23.507 80.3117 23.4782 80.1401 23.3629 79.9972C23.2476 79.8543 23.0459 79.7114 22.7 79.5398C22.3541 79.3683 22.1236 79.2254 21.9506 79.0824C21.7777 78.9395 21.6624 78.768 21.6048 78.5965C21.5471 78.425 21.5471 78.2534 21.6048 78.0533C21.6912 77.7389 21.893 77.5102 22.2389 77.3387C22.5847 77.1957 22.9594 77.1671 23.3629 77.2815C23.8241 77.3958 24.1411 77.5959 24.3717 77.9104C24.6023 78.2249 24.6599 78.5393 24.5734 78.9109L23.8817 78.7394C23.9394 78.5679 23.8817 78.3678 23.7664 78.1963C23.6511 78.0247 23.4782 77.9104 23.2188 77.8532C22.9594 77.796 22.7577 77.796 22.6135 77.8532C22.4406 77.9104 22.3541 78.0533 22.2965 78.2249C22.2677 78.3964 22.2965 78.5107 22.383 78.6536C22.4983 78.768 22.7 78.9109 23.017 79.0824C23.3341 79.254 23.5935 79.3969 23.7664 79.5684C23.9394 79.7399 24.0835 79.8829 24.1411 80.0544C24.1987 80.2259 24.1987 80.426 24.1411 80.6261C24.0546 80.9692 23.8241 81.2264 23.507 81.3694C23.19 81.5123 22.7865 81.5123 22.3253 81.398C22.0083 81.3122 21.7489 81.1978 21.5183 81.0263C21.3166 80.8548 21.1436 80.6547 21.0572 80.426C20.9707 80.1973 20.9707 79.9686 21.0283 79.7399L21.6912 79.9115C21.6336 80.1401 21.6912 80.3403 21.8353 80.5118C21.9795 80.6833 22.1812 80.7976 22.4406 80.8834C22.7 80.9406 22.9018 80.9406 23.1035 80.8834C23.3053 80.8262 23.3917 80.6547 23.4494 80.4832Z" fill="#F3F243"/>
<path d="M24.6599 82.9992L24.3429 82.6562C24.6311 82.3989 24.8329 82.0845 24.9193 81.7414L25.0634 81.1411L25.7263 81.284L25.6111 81.8272C25.5534 82.0845 25.4381 82.3132 25.2652 82.5133C25.0634 82.7134 24.8617 82.8849 24.6599 82.9992Z" fill="#F3F243"/>
<path d="M31.0296 83.0847C31.0008 82.9989 31.0008 82.856 31.0008 82.6559C30.6261 82.9417 30.2226 83.0275 29.7614 82.9703C29.3579 82.9132 29.0697 82.7416 28.8391 82.4844C28.6086 82.2271 28.5509 81.9126 28.6086 81.5696C28.6662 81.1408 28.8968 80.8549 29.2426 80.6834C29.5885 80.5119 30.0785 80.4547 30.6549 80.5691L31.3178 80.6834L31.3755 80.369C31.4043 80.1403 31.3755 79.9402 31.2602 79.7686C31.1449 79.5971 30.9431 79.5114 30.6549 79.4542C30.3955 79.4256 30.1938 79.4542 30.0208 79.54C29.8479 79.6257 29.7326 79.7686 29.7038 79.9402L29.0121 79.8258C29.0409 79.6257 29.1562 79.4542 29.3291 79.2827C29.502 79.1111 29.7326 78.9968 29.992 78.9396C30.2514 78.8825 30.5396 78.8539 30.8279 78.911C31.289 78.9968 31.6349 79.1683 31.8654 79.4256C32.096 79.7115 32.1825 80.0259 32.1248 80.4547L31.8366 82.2842C31.779 82.6559 31.779 82.9417 31.8366 83.1704V83.2276L31.0296 83.0847ZM29.992 82.37C30.1938 82.3986 30.4243 82.37 30.6261 82.3128C30.8279 82.2271 31.0008 82.1127 31.1161 81.9412L31.2602 81.1122L30.7126 81.0264C29.8767 80.8835 29.4156 81.055 29.3291 81.5696C29.3003 81.7697 29.3291 81.9698 29.4732 82.1127C29.5885 82.2557 29.7614 82.3414 29.992 82.37Z" fill="#F3F243"/>
<path d="M35.2664 80.1689C35.1511 80.1403 35.0646 80.1117 34.9205 80.1117C34.4594 80.0545 34.1423 80.1974 33.9117 80.5691L33.5659 83.4277L32.8741 83.342L33.3641 79.3398L34.027 79.4256L33.9694 79.883C34.2288 79.5399 34.5746 79.4256 35.007 79.4542C35.1511 79.4828 35.2375 79.5114 35.2952 79.54L35.2664 80.1689Z" fill="#F3F243"/>
<path d="M37.2264 78.7679L37.1399 79.7398L37.8893 79.797L37.8316 80.3401L37.0823 80.283L36.8517 82.77C36.8229 82.9415 36.8517 83.0559 36.9093 83.1416C36.967 83.2274 37.0823 83.2845 37.2552 83.2845C37.3417 83.2845 37.457 83.2846 37.6011 83.256L37.5434 83.7991C37.3705 83.8277 37.1687 83.8277 36.9958 83.8277C36.6788 83.7991 36.4482 83.6848 36.3329 83.4847C36.1888 83.2845 36.1311 82.9987 36.16 82.6842L36.3905 80.1972L35.6412 80.14L35.6988 79.5969L36.4482 79.6541L36.5347 78.6821L37.2264 78.7679Z" fill="#F3F243"/>
<path d="M39.2149 83.9425L38.5232 83.8853L38.8114 79.8546L39.5031 79.9118L39.2149 83.9425ZM38.8114 78.7969C38.8114 78.6826 38.8691 78.5968 38.9267 78.511C39.0132 78.4253 39.0996 78.3967 39.2437 78.4253C39.3879 78.4539 39.4743 78.4824 39.532 78.5682C39.5896 78.654 39.6184 78.7397 39.6184 78.8541C39.6184 78.9684 39.5608 79.0542 39.5031 79.1399C39.4167 79.1971 39.3302 79.2543 39.1861 79.2257C39.042 79.1971 38.9555 79.1685 38.8979 79.0828C38.8402 78.997 38.8114 78.9112 38.8114 78.7969Z" fill="#F3F243"/>
<path d="M42.9042 83.0563C42.9042 82.8562 42.8465 82.7133 42.7024 82.6275C42.5583 82.5132 42.3277 82.4274 41.9819 82.3417C41.636 82.2559 41.3478 82.1415 41.146 82.0558C40.9443 81.9414 40.8002 81.8271 40.7137 81.6556C40.6272 81.5126 40.5696 81.3411 40.5984 81.141C40.5984 80.798 40.7714 80.5407 41.0596 80.312C41.3478 80.0833 41.7225 79.9976 42.1548 79.9976C42.616 80.0261 42.9906 80.1405 43.2789 80.3978C43.5671 80.6551 43.6824 80.9409 43.6824 81.3125L42.9906 81.284C42.9906 81.0838 42.933 80.9409 42.7601 80.798C42.5871 80.6551 42.4142 80.5693 42.1548 80.5693C41.8954 80.5693 41.6937 80.5979 41.5495 80.7122C41.4054 80.8266 41.319 80.9695 41.319 81.141C41.319 81.3125 41.3766 81.4269 41.4919 81.5126C41.636 81.5984 41.8666 81.6842 42.2125 81.7699C42.5583 81.8557 42.8465 81.97 43.0483 82.0844C43.25 82.1987 43.423 82.3417 43.5094 82.4846C43.5959 82.6275 43.6536 82.8276 43.6536 83.0277C43.6536 83.3994 43.4806 83.6852 43.1924 83.8853C42.9042 84.0854 42.5007 84.1998 42.0395 84.1712C41.7225 84.1712 41.4343 84.0854 41.1749 83.9711C40.9155 83.8567 40.7425 83.6852 40.5984 83.4565C40.4543 83.2564 40.3967 83.0277 40.3967 82.7705L41.0884 82.799C41.0884 83.0277 41.1749 83.2278 41.3478 83.3708C41.5207 83.5137 41.7513 83.5995 42.0395 83.5995C42.2989 83.5995 42.5295 83.5709 42.6736 83.4565C42.8177 83.3422 42.9042 83.2278 42.9042 83.0563Z" fill="#F3F243"/>
<path d="M45.5847 79.1396V80.1116H46.3341V80.6547H45.5847V83.1703C45.5847 83.3419 45.6135 83.4562 45.6712 83.542C45.7288 83.6277 45.8441 83.6563 46.017 83.6563C46.1035 83.6563 46.2188 83.6563 46.3629 83.5991V84.1709C46.19 84.228 45.9882 84.2566 45.8153 84.2566C45.4982 84.2566 45.2677 84.1709 45.1236 83.9708C44.9795 83.7707 44.893 83.5134 44.893 83.1703V80.6547H44.1436V80.1116H44.893V79.1396H45.5847Z" fill="#F3F243"/>
<path d="M49.9655 83.9995C49.9079 83.9137 49.879 83.7708 49.8502 83.5707C49.562 83.9137 49.1873 84.1138 48.7262 84.1424C48.3226 84.171 47.9768 84.0852 47.7174 83.8851C47.458 83.685 47.2851 83.3992 47.2562 83.0561C47.2274 82.6273 47.3715 82.2843 47.6597 82.0556C47.9768 81.7983 48.4091 81.6554 48.9856 81.5982L49.6485 81.541L49.6196 81.2266C49.5908 80.9979 49.5044 80.7978 49.3602 80.6549C49.2161 80.5119 48.9856 80.4548 48.6973 80.4833C48.4379 80.5119 48.2362 80.5691 48.0921 80.712C47.9191 80.855 47.8615 80.9979 47.8615 81.1694L47.1698 81.2266C47.1409 81.0265 47.2274 80.8264 47.3427 80.6263C47.4868 80.4262 47.6597 80.2546 47.8903 80.1403C48.1209 80.026 48.4091 79.9402 48.6973 79.9116C49.1585 79.883 49.5332 79.9688 49.8214 80.1689C50.1096 80.369 50.2537 80.6834 50.3114 81.1122L50.4555 82.9704C50.4843 83.342 50.5419 83.6278 50.6572 83.8565V83.9137L49.9655 83.9995ZM48.755 83.5421C48.9856 83.5135 49.1873 83.4563 49.3602 83.342C49.562 83.2276 49.6773 83.0561 49.7637 82.8846L49.7061 82.0556L49.1585 82.0842C48.2938 82.1414 47.8903 82.4272 47.948 82.9132C47.9768 83.1419 48.0344 83.2848 48.2074 83.3992C48.3515 83.5135 48.5244 83.5707 48.755 83.5421Z" fill="#F3F243"/>
<path d="M55.1535 82.17L55.4705 78.9969L56.191 78.854L55.5281 83.7423C55.4129 84.457 55.0958 84.8572 54.5482 84.9715L54.4041 85.0001H54.1447L54.0294 84.457L54.2312 84.4284C54.4617 84.3712 54.6347 84.2854 54.7499 84.1711C54.8652 84.0567 54.9229 83.8566 54.9517 83.5994L55.0093 83.1706L52.7612 79.5401L53.5106 79.3972L55.1535 82.17Z" fill="#F3F243"/>
<path d="M59.3327 76.9956L59.6209 77.939L60.3415 77.7389L60.4856 78.2534L59.7651 78.4535L60.4568 80.8548C60.5144 80.9977 60.5721 81.1121 60.6585 81.1692C60.745 81.2264 60.8603 81.2264 61.0332 81.1978C61.1197 81.1692 61.2062 81.1406 61.3503 81.0549L61.4944 81.598C61.3214 81.6838 61.1773 81.7696 61.0044 81.8267C60.7162 81.9125 60.4568 81.8839 60.255 81.741C60.0533 81.598 59.9092 81.3693 59.7939 81.0549L59.1021 78.6536L58.3816 78.8537L58.2375 78.3392L58.958 78.1391L58.6698 77.1957L59.3327 76.9956Z" fill="#F3F243"/>
<path d="M61.5233 79.4257C61.408 79.0541 61.3503 78.6825 61.408 78.3395C61.4656 77.9964 61.5809 77.682 61.7827 77.4247C61.9844 77.1674 62.2727 76.9959 62.6185 76.8815C63.1373 76.71 63.6273 76.7386 64.0884 76.9959C64.5496 77.2532 64.8666 77.682 65.0684 78.2823L65.0972 78.3395C65.2125 78.7111 65.2701 79.0827 65.2125 79.4257C65.1549 79.7688 65.0396 80.0832 64.8378 80.3119C64.6361 80.5692 64.3478 80.7407 64.002 80.8551C63.4832 81.0266 62.9932 80.998 62.532 80.7407C62.0709 80.4834 61.7539 80.0546 61.5521 79.4829L61.5233 79.4257ZM62.215 79.2828C62.3591 79.7116 62.5609 80.0261 62.8491 80.1976C63.1373 80.3691 63.4544 80.4263 63.7714 80.3119C64.1173 80.1976 64.319 79.9689 64.4343 79.6544C64.5496 79.34 64.5208 78.9398 64.3478 78.4538C64.2037 78.025 64.002 77.7391 63.6849 77.539C63.3967 77.3389 63.0797 77.3103 62.7626 77.4247C62.4456 77.539 62.215 77.7391 62.0997 78.0822C62.0421 78.4252 62.0709 78.8254 62.215 79.2828Z" fill="#F3F243"/>
<path d="M67.3165 75.9382C67.2012 75.9668 67.1147 75.9954 66.9994 76.024C66.5671 76.1955 66.3653 76.4813 66.3365 76.8816L67.3741 79.5687L66.7112 79.826L65.2413 76.0526L65.8754 75.8239L66.0483 76.2527C66.1348 75.8239 66.3653 75.538 66.7688 75.3951C66.8841 75.3379 66.9994 75.3379 67.0859 75.3379L67.3165 75.9382Z" fill="#F3F243"/>
<path d="M68.3252 74.852L68.5558 75.3094C68.6999 74.8234 68.9881 74.4804 69.4492 74.3089C70.2563 73.9659 70.8327 74.2517 71.2074 75.1379L72.245 77.5963L71.6109 77.8536L70.5445 75.3952C70.4292 75.1379 70.2851 74.9664 70.1121 74.8806C69.9392 74.7949 69.7086 74.8234 69.4492 74.9378C69.2475 75.0236 69.0746 75.1665 68.9593 75.338C68.844 75.5095 68.7863 75.7096 68.7863 75.9383L69.9104 78.5969L69.2763 78.8541L67.6911 75.1379L68.3252 74.852Z" fill="#F3F243"/>
<path d="M74.9543 76.4526C74.4643 76.6813 73.9743 76.7099 73.5132 76.5383C73.052 76.3668 72.6773 75.9952 72.4179 75.4521L72.3603 75.3377C72.1874 74.9661 72.1009 74.623 72.1009 74.28C72.1009 73.937 72.1874 73.6225 72.3603 73.3367C72.5332 73.0508 72.7638 72.8507 73.052 72.7078C73.542 72.4791 73.9743 72.4791 74.4066 72.6506C74.839 72.8221 75.156 73.2223 75.4442 73.8226L75.5595 74.0799L73.052 75.252C73.2249 75.595 73.4843 75.8523 73.7726 75.9666C74.0896 76.081 74.4066 76.081 74.6949 75.938C74.9254 75.8237 75.0984 75.7093 75.1848 75.5378C75.3001 75.3663 75.3866 75.1948 75.4154 74.9947L75.9342 75.109C75.9342 75.7093 75.5595 76.1667 74.9543 76.4526ZM73.3114 73.1937C73.052 73.3081 72.8791 73.5082 72.7926 73.7655C72.7062 74.0227 72.735 74.3372 72.8503 74.6802L74.6949 73.8226L74.666 73.7655C74.4931 73.451 74.2914 73.2509 74.0608 73.1365C73.8302 73.0794 73.5708 73.0794 73.3114 73.1937Z" fill="#F3F243"/>
<path d="M76.1359 73.5368C75.963 73.1937 75.8477 72.8221 75.8477 72.4791C75.8477 72.136 75.9054 71.8216 76.0783 71.5357C76.2512 71.2498 76.4818 71.0211 76.7988 70.8782C77.2888 70.6209 77.7788 70.5924 78.2688 70.7639C78.7587 70.9354 79.1334 71.307 79.4216 71.8787L79.4505 71.9359C79.6234 72.279 79.7387 72.622 79.7387 72.9936C79.7387 73.3652 79.681 73.6511 79.5081 73.937C79.3352 74.2228 79.1046 74.4515 78.7587 74.623C78.2688 74.8803 77.7788 74.9089 77.2888 74.7374C76.7988 74.5659 76.4242 74.1943 76.1359 73.6225V73.5368ZM76.77 73.2795C76.9718 73.6797 77.2312 73.937 77.5482 74.0799C77.8653 74.2228 78.1823 74.2228 78.4705 74.0513C78.7876 73.8798 78.9605 73.6511 79.0181 73.3081C79.0758 72.965 78.9893 72.5648 78.7587 72.136C78.557 71.7358 78.2976 71.4785 77.9805 71.3356C77.6635 71.1927 77.3465 71.1927 77.0294 71.3642C76.7124 71.5357 76.5394 71.7644 76.4818 72.1074C76.453 72.4219 76.5394 72.8221 76.77 73.2795Z" fill="#F3F243"/>
<path d="M82.8227 71.0212C82.7363 70.8497 82.5922 70.7639 82.4192 70.7639C82.2463 70.7354 81.9869 70.7925 81.641 70.9069C81.2952 71.0212 81.007 71.0784 80.7764 71.0784C80.5458 71.0784 80.3441 71.0498 80.1999 70.9926C80.027 70.9069 79.9117 70.7925 79.7964 70.621C79.6235 70.3351 79.6235 70.0207 79.7388 69.6777C79.8541 69.3346 80.1135 69.0488 80.4882 68.8486C80.8917 68.62 81.2664 68.5342 81.641 68.5914C82.0157 68.6485 82.2751 68.8486 82.4769 69.1631L81.8716 69.5061C81.7852 69.3346 81.6122 69.2489 81.4105 69.1917C81.2087 69.1631 80.9781 69.1917 80.7764 69.306C80.5458 69.4204 80.4017 69.5919 80.3441 69.7348C80.2864 69.9063 80.2864 70.0493 80.3729 70.2208C80.4593 70.3637 80.5746 70.4495 80.7476 70.4495C80.9205 70.4495 81.1511 70.4209 81.4969 70.3066C81.8428 70.1922 82.131 70.135 82.3616 70.135C82.5922 70.1065 82.7939 70.1636 82.9669 70.2208C83.1398 70.3066 83.2839 70.4209 83.3704 70.621C83.5433 70.9355 83.5721 71.2499 83.428 71.593C83.2839 71.936 83.0245 72.2219 82.621 72.4505C82.3328 72.6221 82.0734 72.7078 81.7852 72.7364C81.4969 72.765 81.2664 72.7078 81.0358 72.6221C80.8052 72.5363 80.6323 72.3648 80.517 72.1647L81.1222 71.8216C81.2375 72.0218 81.4105 72.1361 81.641 72.1647C81.8716 72.1933 82.1022 72.1361 82.3328 71.9932C82.5633 71.8502 82.7075 71.7073 82.7939 71.5358C82.9092 71.3357 82.9092 71.1642 82.8227 71.0212Z" fill="#F3F243"/>
</svg>
